<?xml version="1.0" encoding="UTF-8" standalone="no"?>
<!-- Created with Inkscape (http://www.inkscape.org/) -->

<svg
   width="210mm"
   height="297mm"
   viewBox="0 0 210 297"
   version="1.1"
   id="svg1"
   inkscape:version="1.4.2 (ebf0e940d0, 2025-05-08)"
   sodipodi:docname="drawing_1.svg"
   xmlns:inkscape="http://www.inkscape.org/namespaces/inkscape"
   xmlns:sodipodi="http://sodipodi.sourceforge.net/DTD/sodipodi-0.dtd"
   xmlns="http://www.w3.org/2000/svg"
   xmlns:svg="http://www.w3.org/2000/svg">
  <sodipodi:namedview
     id="namedview1"
     pagecolor="#ffffff"
     bordercolor="#000000"
     borderopacity="0.25"
     inkscape:showpageshadow="2"
     inkscape:pageopacity="0.0"
     inkscape:pagecheckerboard="0"
     inkscape:deskcolor="#d1d1d1"
     inkscape:document-units="mm"
     inkscape:zoom="0.71268238"
     inkscape:cx="397.09134"
     inkscape:cy="561.25984"
     inkscape:window-width="1920"
     inkscape:window-height="1011"
     inkscape:window-x="0"
     inkscape:window-y="0"
     inkscape:window-maximized="1"
     inkscape:current-layer="layer1"
     inkscape:export-bgcolor="#ffffffee" />
  <defs
     id="defs1">
    <clipPath
       clipPathUnits="userSpaceOnUse"
       id="clipPath147-2">
      <path
         d="m 159.945,126.137 h 522 v 343 h -522 z"
         transform="matrix(0,1,1,0,0,0)"
         id="path147-7" />
    </clipPath>
    <clipPath
       clipPathUnits="userSpaceOnUse"
       id="clipPath145-9">
      <path
         d="m 159.945,126.137 h 522 v 343 h -522 z"
         transform="matrix(0,1,1,0,0,0)"
         id="path145-1" />
    </clipPath>
    <clipPath
       clipPathUnits="userSpaceOnUse"
       id="clipPath143-6">
      <path
         d="m 159.945,126.137 h 522 v 343 h -522 z"
         transform="matrix(1,0,0,0.99999628,-303.10475,-240.07384)"
         id="path143-2" />
    </clipPath>
    <clipPath
       clipPathUnits="userSpaceOnUse"
       id="clipPath141-3">
      <path
         d="m 159.945,126.137 h 522 v 343 h -522 z"
         transform="matrix(1,0,0,0.83476396,-312.96702,-204.49607)"
         id="path141-5" />
    </clipPath>
    <clipPath
       clipPathUnits="userSpaceOnUse"
       id="clipPath139-7">
      <path
         d="m 159.945,126.137 h 522 v 343 h -522 z"
         transform="matrix(0,1,1.0710571,0,0,0)"
         id="path139-5" />
    </clipPath>
  </defs>
  <g
     inkscape:label="Layer 1"
     inkscape:groupmode="layer"
     id="layer1">
    <path
       id="path138"
       d="m 253.648,311.184 h 73.213 v 43.457 h -73.213 z"
       style="fill:none;stroke:#231f20;stroke-width:0.629335;stroke-linecap:butt;stroke-linejoin:miter;stroke-miterlimit:2.6131;stroke-dasharray:none;stroke-opacity:1"
       transform="matrix(0,3.2451061,3.4756939,0,-1040.4964,-794.04774)"
       clip-path="url(#clipPath139-7)" />
    <path
       id="path140"
       d="m 1.0193131,-4.5391306 h 1.4296875 l 0.5859375,2.406468 1.5351563,-2.406468 H 6.0583756 L 5.1794694,-1.0152817e-4 H 4.0661881 L 4.7224381,-3.345679 3.1404069,-0.87073426 H 2.5193131 L 1.8865006,-3.345679 1.2419694,-1.0152817e-4 H 0.12868813 Z m 9.6679689,1.8684365 c 0,-0.3619484 -0.08203,-0.6358553 -0.246094,-0.8217208 -0.152344,-0.1858654 -0.398437,-0.2739069 -0.7031249,-0.2739069 -0.3984375,0 -0.7382812,0.176083 -1.0195312,0.5478139 -0.2695313,0.352166 -0.4101563,0.8119384 -0.4101563,1.3597522 0,0.3423837 0.082031,0.6162906 0.234375,0.8119384 0.1640625,0.18586543 0.3867188,0.28368933 0.6796875,0.28368933 0.2226563,0 0.4335938,-0.048912 0.6210938,-0.14673586 0.1757811,-0.0978239 0.3398441,-0.24455977 0.4570311,-0.43042517 0.128906,-0.1858654 0.222656,-0.3912956 0.28125,-0.626073 0.07031,-0.2347773 0.105469,-0.4695547 0.105469,-0.7043321 z M 9.9138444,-4.6173897 c 0.5976566,0 1.0898436,0.1663006 1.4531246,0.5086842 0.363282,0.3228189 0.550782,0.7630265 0.550782,1.3108403 0,0.3619485 -0.05859,0.7141145 -0.164063,1.0467158 -0.117187,0.3228189 -0.28125,0.6162906 -0.492187,0.88041514 -0.257813,0.32281888 -0.574219,0.55759624 -0.9375,0.72389688 -0.3515629,0.15651824 -0.7734379,0.23477736 -1.2421879,0.23477736 -0.5976562,0 -1.0898437,-0.16630063 -1.453125,-0.4989019 C 7.2654069,-0.74356319 7.0779069,-1.1837708 7.0779069,-1.7315846 c 0,-0.3619485 0.058594,-0.7238969 0.1640625,-1.0467158 0.1171875,-0.3228189 0.28125,-0.6260729 0.4921875,-0.8901975 0.2695312,-0.3130365 0.5742187,-0.5575962 0.9375,-0.7141145 0.3515625,-0.1565182 0.7734375,-0.2347773 1.2421875,-0.2347773 z m 6.7236326,1.9466956 c 0,-0.3619484 -0.08203,-0.6358553 -0.246094,-0.8217208 -0.152343,-0.1858654 -0.398437,-0.2739069 -0.703125,-0.2739069 -0.398437,0 -0.738281,0.176083 -1.019531,0.5478139 -0.269531,0.352166 -0.410156,0.8119384 -0.410156,1.3597522 0,0.3423837 0.08203,0.6162906 0.234375,0.8119384 0.164062,0.18586543 0.386719,0.28368933 0.679687,0.28368933 0.222657,0 0.433594,-0.048912 0.621094,-0.14673586 0.175781,-0.0978239 0.339844,-0.24455977 0.457031,-0.43042517 0.128907,-0.1858654 0.222657,-0.3912956 0.28125,-0.626073 0.07031,-0.2347773 0.105469,-0.4695547 0.105469,-0.7043321 z M 15.86404,-4.6173897 c 0.597656,0 1.089843,0.1663006 1.453125,0.5086842 0.363281,0.3228189 0.550781,0.7630265 0.550781,1.3108403 0,0.3619485 -0.05859,0.7141145 -0.164063,1.0467158 -0.117187,0.3228189 -0.28125,0.6162906 -0.492187,0.88041514 -0.257813,0.32281888 -0.574219,0.55759624 -0.9375,0.72389688 -0.351563,0.15651824 -0.773438,0.23477736 -1.242188,0.23477736 -0.597656,0 -1.089843,-0.16630063 -1.453125,-0.4989019 -0.363281,-0.33260127 -0.550781,-0.77280888 -0.550781,-1.32062268 0,-0.3619485 0.05859,-0.7238969 0.164063,-1.0467158 0.117187,-0.3228189 0.28125,-0.6260729 0.492187,-0.8901975 0.269531,-0.3130365 0.574219,-0.5575962 0.9375,-0.7141145 0.351563,-0.1565182 0.773438,-0.2347773 1.242188,-0.2347773 z m 3.914062,0.078259 h 1.300781 l 1.042969,3.1499297 0.609375,-3.1499297 h 1.101563 l -0.878907,4.53902907183 h -1.3125 L 20.610133,-3.1402488 20.000758,-1.0152817e-4 h -1.113281 z m 6.867188,0.8901975 -0.539063,2.76841645 h 0.410156 c 0.550782,0 0.984375,-0.15651825 1.300782,-0.45977235 0.316406,-0.3130365 0.480468,-0.7238969 0.480468,-1.2423636 0,-0.352166 -0.105468,-0.6260729 -0.316406,-0.7923736 -0.210937,-0.1858654 -0.515625,-0.2739069 -0.925781,-0.2739069 z m -0.996094,-0.8901975 h 1.230469 c 0.585937,0 1.019531,0.039129 1.3125,0.1076063 0.292968,0.068477 0.539062,0.1858654 0.738281,0.352166 0.1875,0.1663007 0.339844,0.3619485 0.445312,0.5967258 0.09375,0.2347774 0.140625,0.4989019 0.140625,0.7923736 0,0.4108604 -0.08203,0.802156 -0.246093,1.1641045 -0.175782,0.3619484 -0.410157,0.66520253 -0.714844,0.91954467 -0.269531,0.21521259 -0.574219,0.37173083 -0.9375,0.45977235 -0.351563,0.0978239 -0.890625,0.14673585183 -1.628906,0.14673585183 h -1.230469 z m 7.866211,3.7075259 H 31.699001 L 31.253688,-1.0152817e-4 H 30.046657 L 32.613063,-4.5391306 h 1.335938 l 0.808593,4.53902907183 h -1.113281 z m -1.371094,-0.8217208 h 1.21875 L 33.093532,-3.394591 Z m 3.462891,-2.8858051 h 1.171875 l 0.773437,1.6825711 1.347657,-1.6825711 h 1.359375 l -2.25,2.6510277 -0.363282,1.88800137183 H 36.474391 L 36.849391,-1.8881029 Z M 3.0583756,7.2779968 H 1.2419694 L 0.79665688,8.1095 H -0.41037437 L 2.1560319,3.5704709 H 3.4919694 L 4.3005631,8.1095 H 3.1872819 Z M 1.6872819,6.4562761 h 1.21875 L 2.6365006,4.7150106 Z M 5.6921647,3.5704709 H 9.8757584 L 9.6999772,4.4606684 h -1.5 L 7.4851334,8.1095 H 6.3132584 L 7.0281022,4.4606684 H 5.5163834 Z m 8.6074223,1.8684366 c 0,-0.3619485 -0.08203,-0.6358554 -0.246094,-0.8217208 -0.152344,-0.1858654 -0.398438,-0.2739069 -0.703125,-0.2739069 -0.398438,0 -0.738281,0.176083 -1.019531,0.5478138 -0.269532,0.3521661 -0.410157,0.8119384 -0.410157,1.3597523 0,0.3423836 0.08203,0.6162906 0.234375,0.8119384 0.164063,0.1858654 0.386719,0.2836893 0.679688,0.2836893 0.222656,0 0.433594,-0.048912 0.621094,-0.1467359 0.175781,-0.097824 0.339843,-0.2445597 0.457031,-0.4304251 0.128906,-0.1858655 0.222656,-0.3912957 0.28125,-0.626073 0.07031,-0.2347774 0.105469,-0.4695548 0.105469,-0.7043321 z M 13.526149,3.4922118 c 0.597656,0 1.089844,0.1663006 1.453125,0.5086843 0.363281,0.3228189 0.550781,0.7630264 0.550781,1.3108403 0,0.3619484 -0.05859,0.7141145 -0.164062,1.0467158 -0.117188,0.3228188 -0.28125,0.6162905 -0.492188,0.8804151 -0.257812,0.3228189 -0.574218,0.5575962 -0.9375,0.7238969 -0.351562,0.1565182 -0.773437,0.2347773 -1.242187,0.2347773 -0.597656,0 -1.089844,-0.1663006 -1.453125,-0.4989019 -0.363281,-0.3326012 -0.550781,-0.7728088 -0.550781,-1.3206227 0,-0.3619484 0.05859,-0.7238968 0.164062,-1.0467157 0.117188,-0.3228189 0.28125,-0.626073 0.492188,-0.8901975 0.269531,-0.3130365 0.574218,-0.5575963 0.9375,-0.7141145 0.351562,-0.1565183 0.773437,-0.2347774 1.242187,-0.2347774 z m 4.248047,0.078259 h 1.429687 l 0.585938,2.406468 1.535156,-2.406468 h 1.488281 L 21.934352,8.1095 H 20.821071 L 21.477321,4.7639225 19.89529,7.2388673 H 19.274196 L 18.641383,4.7639225 17.996852,8.1095 h -1.113281 z m 8.194336,0.8901975 -0.539063,2.7684165 h 0.410157 c 0.550781,0 0.984375,-0.1565182 1.300781,-0.4597723 0.316406,-0.3130365 0.480469,-0.7238969 0.480469,-1.2423636 0,-0.3521661 -0.105469,-0.626073 -0.316407,-0.7923736 C 27.093532,4.54871 26.788844,4.4606684 26.378688,4.4606684 Z M 24.972438,3.5704709 h 1.230469 c 0.585937,0 1.019531,0.03913 1.3125,0.1076063 0.292969,0.068477 0.539062,0.1858654 0.738281,0.3521661 0.1875,0.1663006 0.339844,0.3619484 0.445313,0.5967258 0.09375,0.2347773 0.140625,0.4989019 0.140625,0.7923736 0,0.4108604 -0.08203,0.802156 -0.246094,1.1641044 -0.175781,0.3619485 -0.410156,0.6652026 -0.714844,0.9195447 -0.269531,0.2152126 -0.574219,0.3717309 -0.9375,0.4597724 C 26.589626,8.0605881 26.050563,8.1095 25.312282,8.1095 h -1.230469 z m 8.200195,3.7075259 H 31.356227 L 30.910915,8.1095 H 29.703883 L 32.27029,3.5704709 h 1.335937 L 34.414821,8.1095 H 33.30154 Z M 31.80154,6.4562761 h 1.21875 L 32.750758,4.7150106 Z m 3.805664,-2.8858052 h 1.171875 l 0.773437,1.6825712 1.347657,-1.6825712 h 1.359375 l -2.25,2.6510278 L 37.646266,8.1095 h -1.171875 l 0.375,-1.8880013 z M 1.0193131,27.894384 H 4.1716569 L 3.9958756,28.784582 H 2.0154069 L 1.8513444,29.625867 H 3.7146256 L 3.5388444,30.506283 H 1.6755631 l -0.375,1.92713 H 0.12868813 Z m 5.9765625,0 h 1.1601563 l -0.8789063,4.539029 h -1.171875 z m 5.3027344,2.015173 c 0.269531,0 0.46875,-0.06848 0.597656,-0.185866 0.140625,-0.117388 0.210938,-0.303254 0.210938,-0.547813 0,-0.146736 -0.04687,-0.254343 -0.140625,-0.322819 -0.09375,-0.06848 -0.246094,-0.107607 -0.445313,-0.107607 h -0.480468 l -0.234375,1.164105 z m -0.644531,0.802156 -0.339844,1.7217 H 10.14236 l 0.890625,-4.539029 h 1.722656 c 0.503907,0 0.878907,0.09782 1.136719,0.28369 0.257813,0.185865 0.386719,0.459772 0.386719,0.82172 0,0.361949 -0.105469,0.674985 -0.304688,0.909763 -0.199218,0.234777 -0.480468,0.371731 -0.820312,0.401078 0.152344,0.02935 0.28125,0.117388 0.386719,0.24456 0.105468,0.127171 0.199218,0.322818 0.28125,0.586943 l 0.386718,1.291275 H 13.04861 l -0.351562,-1.124974 c -0.05859,-0.224995 -0.140625,-0.381514 -0.246094,-0.469555 -0.09375,-0.07826 -0.246094,-0.127171 -0.421875,-0.127171 z m 5.897461,-2.817329 h 3.152343 l -0.175781,0.890198 h -1.980469 l -0.164062,0.841285 h 1.863281 l -0.175781,0.880416 H 18.20779 l -0.199219,1.046715 h 2.050781 l -0.175781,0.880415 h -3.222656 z m 6.966797,0.890198 -0.539063,2.768416 h 0.410156 c 0.550782,0 0.984375,-0.156518 1.300782,-0.459772 0.316406,-0.313036 0.480468,-0.723897 0.480468,-1.242364 0,-0.352166 -0.105468,-0.626073 -0.316406,-0.792373 -0.210937,-0.185866 -0.515625,-0.273907 -0.925781,-0.273907 z m -0.996094,-0.890198 h 1.230469 c 0.585937,0 1.019531,0.03913 1.3125,0.107607 0.292968,0.06848 0.539062,0.185865 0.738281,0.352166 0.1875,0.1663 0.339844,0.361948 0.445312,0.596726 0.09375,0.234777 0.140625,0.498901 0.140625,0.792373 0,0.410861 -0.08203,0.802156 -0.246093,1.164105 -0.175782,0.361948 -0.410157,0.665202 -0.714844,0.919544 -0.269531,0.215213 -0.574219,0.371731 -0.9375,0.459773 -0.351563,0.09782 -0.890625,0.146735 -1.628906,0.146735 h -1.230469 z m 8.929687,3.707526 h -1.816406 l -0.445312,0.831503 H 28.98318 l 2.566407,-4.539029 h 1.335937 l 0.808594,4.539029 h -1.113281 z m -1.371093,-0.82172 h 1.21875 l -0.269532,-1.741266 z m 4.526367,-2.885806 h 1.171875 l 0.773437,1.682572 1.347657,-1.682572 h 1.359375 l -2.25,2.651028 -0.363282,1.888001 h -1.171875 l 0.375,-1.888001 z m -31.4707034,16.363494 -0.1875,0.958674 C 3.7263444,45.099163 3.4919694,45.020904 3.2693131,44.96221 3.0466569,44.90352 2.8357194,44.88395 2.6247819,44.88395 c -0.2929688,0 -0.5273438,0.03913 -0.6914063,0.136953 -0.1640625,0.08804 -0.2460937,0.215213 -0.2460937,0.371731 0,0.107606 0.046875,0.185865 0.1054687,0.24456 0.082031,0.05869 0.234375,0.117388 0.4570313,0.1663 l 0.4804687,0.117389 c 0.3984375,0.107606 0.6914063,0.254342 0.8789063,0.440208 0.1875,0.195647 0.28125,0.440207 0.28125,0.743461 0,0.498902 -0.1875,0.890198 -0.5625,1.18367 -0.375,0.303254 -0.8789063,0.44999 -1.5,0.44999 -0.2929688,0 -0.5859375,-0.02935 -0.87890627,-0.07826 C 0.65603188,48.601259 0.37478188,48.523 0.09353188,48.415394 l 0.1875,-0.988022 c 0.26953125,0.156518 0.52734375,0.273907 0.78515622,0.342384 0.2578125,0.08804 0.5039063,0.117389 0.75,0.117389 0.2695313,0 0.4804688,-0.04891 0.65625,-0.156519 0.1640625,-0.117388 0.2460938,-0.254342 0.2460938,-0.420642 0,-0.117389 -0.035156,-0.205431 -0.1171875,-0.264125 -0.070312,-0.05869 -0.234375,-0.127171 -0.4804688,-0.185865 L 1.6404069,46.742605 C 1.2771256,46.654563 1.0193131,46.51761 0.85525063,46.321962 0.67946938,46.136097 0.58571938,45.891537 0.58571938,45.598065 c 0,-0.479337 0.1875,-0.851068 0.55078122,-1.144539 0.3515625,-0.273907 0.84375,-0.420643 1.453125,-0.420643 0.2460938,0 0.5039063,0.01957 0.7617188,0.05869 0.2578125,0.03913 0.515625,0.08804 0.7851562,0.166301 z m 3.6064453,-0.146736 h 1.1601563 l -0.5273438,2.719504 c -0.011719,0.09782 -0.035156,0.185866 -0.035156,0.254343 -0.023437,0.07826 -0.023437,0.146735 -0.023437,0.20543 0,0.195648 0.058594,0.342383 0.1640625,0.440207 0.1054687,0.09782 0.2695312,0.146736 0.4804687,0.146736 0.28125,0 0.4921875,-0.07826 0.6445313,-0.234777 0.1523437,-0.166301 0.2695312,-0.430425 0.3398437,-0.811939 l 0.5273444,-2.719504 h 1.171875 l -0.527344,2.719504 c -0.128906,0.665203 -0.386719,1.154322 -0.75,1.457577 -0.3750004,0.303254 -0.8906254,0.44999 -1.5820316,0.44999 -0.5273438,0 -0.9375,-0.117389 -1.21875,-0.342384 -0.28125,-0.234778 -0.421875,-0.567379 -0.421875,-0.997804 0,-0.07826 0.011719,-0.156518 0.011719,-0.254342 0.011719,-0.08804 0.023437,-0.195648 0.046875,-0.313037 z m 7.2949221,0 h 1.300781 l 1.042969,3.14993 0.609375,-3.14993 h 1.101562 l -0.878906,4.539029 h -1.3125 l -1.03125,-3.140147 -0.609375,3.140147 h -1.113281 z m 8.449219,0.890197 -0.539063,2.768417 h 0.410156 c 0.550782,0 0.984375,-0.156518 1.300782,-0.459772 0.316406,-0.313037 0.480468,-0.723897 0.480468,-1.242364 0,-0.352166 -0.105468,-0.626073 -0.316406,-0.792374 -0.210937,-0.185865 -0.515625,-0.273907 -0.925781,-0.273907 z m -0.996094,-0.890197 h 1.230469 c 0.585937,0 1.019531,0.03913 1.3125,0.107606 0.292968,0.06848 0.539062,0.185866 0.738281,0.352166 0.1875,0.166301 0.339844,0.361949 0.445312,0.596726 0.09375,0.234777 0.140625,0.498902 0.140625,0.792374 0,0.41086 -0.08203,0.802156 -0.246093,1.164104 -0.175782,0.361949 -0.410157,0.665203 -0.714844,0.919545 -0.269531,0.215212 -0.574219,0.371731 -0.9375,0.459772 -0.351563,0.09782 -0.890625,0.146736 -1.628906,0.146736 h -1.230469 z m 9.445312,3.707526 h -1.816406 l -0.445312,0.831503 h -1.207032 l 2.566407,-4.539029 h 1.335937 l 0.808594,4.539029 h -1.113281 z m -1.371093,-0.821721 h 1.21875 L 31.51443,45.255682 Z m 5.041992,-2.885805 h 1.171875 l 0.773437,1.682571 1.347657,-1.682571 h 1.359375 l -2.25,2.651028 -0.363282,1.888001 h -1.171875 l 0.375,-1.888001 z M 0.66775063,11.677627 H 1.7458756 l 0.140625,3.296665 1.4179688,-3.296665 h 1.125 l 0.140625,3.296665 1.3828125,-3.296665 H 7.1130631 L 5.1560319,16.216656 H 3.8318131 L 3.6794694,12.773255 2.2146256,16.216656 H 0.85525063 Z M 9.95486,15.385153 H 8.1384538 L 7.6931413,16.216656 H 6.48611 l 2.5664063,-4.539029 h 1.3359377 l 0.808594,4.539029 H 10.083766 Z M 8.5837663,14.563432 h 1.21875 L 9.532985,12.822167 Z m 3.2607417,-2.885805 h 4.183594 l -0.175781,0.890197 h -1.5 l -0.714844,3.648832 h -1.171875 l 0.714844,-3.648832 h -1.511719 z m 5.053711,0 h 3.152344 l -0.175781,0.890197 h -1.980469 l -0.164062,0.841286 h 1.863281 l -0.175781,0.880415 h -1.863282 l -0.199218,1.046716 h 2.050781 l -0.175781,0.880415 h -3.222657 z m 5.774414,2.015172 c 0.269532,0 0.46875,-0.06848 0.597657,-0.185865 0.140625,-0.117389 0.210937,-0.303254 0.210937,-0.547814 0,-0.146736 -0.04687,-0.254342 -0.140625,-0.322819 -0.09375,-0.06848 -0.246094,-0.107606 -0.445312,-0.107606 h -0.480469 l -0.234375,1.164104 z m -0.644531,0.802156 -0.339844,1.721701 h -1.171875 l 0.890625,-4.539029 h 1.722657 c 0.503906,0 0.878906,0.09782 1.136718,0.283689 0.257813,0.185866 0.386719,0.459773 0.386719,0.821721 0,0.361948 -0.105469,0.674985 -0.304687,0.909762 -0.199219,0.234778 -0.480469,0.371731 -0.820313,0.401078 0.152344,0.02935 0.28125,0.117389 0.386719,0.24456 0.105469,0.127171 0.199219,0.322819 0.28125,0.586943 l 0.386719,1.291276 h -1.160157 l -0.351562,-1.124975 c -0.05859,-0.224995 -0.140625,-0.381513 -0.246094,-0.469555 -0.09375,-0.07826 -0.246094,-0.127171 -0.421875,-0.127171 z m 5.425781,-1.927131 -0.539062,2.768417 h 0.410156 c 0.550781,0 0.984375,-0.156518 1.300781,-0.459772 0.316407,-0.313037 0.480469,-0.723897 0.480469,-1.242364 0,-0.352166 -0.105469,-0.626073 -0.316406,-0.792374 -0.210938,-0.185865 -0.515625,-0.273907 -0.925781,-0.273907 z M 26.45779,11.677627 h 1.230468 c 0.585938,0 1.019532,0.03913 1.3125,0.107606 0.292969,0.06848 0.539063,0.185866 0.738282,0.352166 0.1875,0.166301 0.339843,0.361949 0.445312,0.596726 0.09375,0.234777 0.140625,0.498902 0.140625,0.792374 0,0.41086 -0.08203,0.802156 -0.246094,1.164104 -0.175781,0.361949 -0.410156,0.665203 -0.714843,0.919545 -0.269532,0.215212 -0.574219,0.371731 -0.9375,0.459772 -0.351563,0.09782 -0.890625,0.146736 -1.628907,0.146736 h -1.230468 z m 7.461914,3.707526 h -1.816406 l -0.445313,0.831503 h -1.207031 l 2.566406,-4.539029 h 1.335938 l 0.808593,4.539029 H 34.04861 Z M 32.54861,14.563432 h 1.21875 l -0.269531,-1.741265 z m 3.058594,-2.885805 h 1.171875 l 0.773437,1.682571 1.347657,-1.682571 h 1.359375 l -2.25,2.651028 -0.363282,1.888001 h -1.171875 l 0.375,-1.888001 z M 0.66775063,19.787228 H 1.7458756 l 0.140625,3.296666 1.4179688,-3.296666 h 1.125 l 0.140625,3.296666 1.3828125,-3.296666 h 1.1601562 l -1.9570312,4.53903 H 3.8318131 L 3.6794694,20.882856 2.2146256,24.326258 H 0.85525063 Z m 9.52441437,0 h 1.160156 l -0.878906,4.53903 H 9.3015397 Z m 4.634765,0 h 1.300782 l 1.042968,3.14993 0.609375,-3.14993 h 1.101563 l -0.878906,4.53903 h -1.3125 l -1.03125,-3.140148 -0.609375,3.140148 h -1.113282 z m 8.516602,0.890198 -0.539063,2.768416 h 0.410157 c 0.550781,0 0.984375,-0.156518 1.300781,-0.459772 0.316406,-0.313036 0.480469,-0.723897 0.480469,-1.242364 0,-0.352166 -0.105469,-0.626072 -0.316407,-0.792373 -0.210937,-0.185866 -0.515625,-0.273907 -0.925781,-0.273907 z m -0.996094,-0.890198 h 1.230469 c 0.585937,0 1.019531,0.03913 1.3125,0.107607 0.292969,0.06848 0.539062,0.185865 0.738281,0.352166 0.1875,0.1663 0.339844,0.361948 0.445313,0.596726 0.09375,0.234777 0.140625,0.498901 0.140625,0.792373 0,0.410861 -0.08203,0.802156 -0.246094,1.164105 -0.175781,0.361948 -0.410156,0.665202 -0.714844,0.919544 -0.269531,0.215213 -0.574219,0.371731 -0.9375,0.459773 -0.351562,0.09782 -0.890625,0.146736 -1.628906,0.146736 h -1.230469 z m 9.512695,3.707526 h -1.816406 l -0.445312,0.831504 h -1.207032 l 2.566407,-4.53903 h 1.335937 l 0.808594,4.53903 H 31.98904 Z m -1.371093,-0.82172 h 1.21875 l -0.269532,-1.741266 z m 5.118164,-2.885806 h 1.171875 l 0.773437,1.682572 1.347657,-1.682572 h 1.359375 l -2.25,2.651028 -0.363282,1.888002 h -1.171875 l 0.375,-1.888002 z M 1.0193131,36.003986 H 4.1716569 L 3.9958756,36.894183 H 2.0154069 L 1.8513444,37.735469 H 3.7146256 L 3.5388444,38.615884 H 1.6755631 L 1.4763444,39.6626 H 3.5271256 L 3.3513444,40.543015 H 0.12868813 Z m 6.7089844,3.707526 H 5.9118913 L 5.4665788,40.543015 H 4.2595475 L 6.8259538,36.003986 H 8.1618913 L 8.970485,40.543015 H 7.8572038 Z M 6.3572038,38.889791 h 1.21875 L 7.3064225,37.148526 Z m 5.8300782,-0.870633 c 0.269531,0 0.46875,-0.06848 0.597656,-0.185865 0.140625,-0.117389 0.210938,-0.303254 0.210938,-0.547814 0,-0.146736 -0.04687,-0.254342 -0.140625,-0.322819 -0.09375,-0.06848 -0.246094,-0.107606 -0.445313,-0.107606 h -0.480469 l -0.234375,1.164104 z m -0.644531,0.802156 -0.339844,1.721701 h -1.171875 l 0.890625,-4.539029 h 1.722656 c 0.503906,0 0.878906,0.09782 1.136719,0.283689 0.257812,0.185866 0.386719,0.459773 0.386719,0.821721 0,0.361948 -0.105469,0.674985 -0.304688,0.909762 -0.199219,0.234778 -0.480469,0.371731 -0.820312,0.401078 0.152343,0.02935 0.28125,0.117389 0.386718,0.24456 0.105469,0.127171 0.199219,0.322819 0.28125,0.586944 l 0.386719,1.291275 H 12.937282 L 12.585719,39.41804 c -0.05859,-0.224995 -0.140625,-0.381513 -0.246093,-0.469555 -0.09375,-0.07826 -0.246094,-0.127171 -0.421875,-0.127171 z m 3.758789,-2.817328 h 4.183593 l -0.175781,0.890197 h -1.5 l -0.714844,3.648832 h -1.171875 l 0.714844,-3.648832 h -1.511719 z m 5.208984,0 h 1.160156 l -0.328125,1.731483 h 1.722657 l 0.328125,-1.731483 h 1.171875 l -0.878907,4.539029 H 22.51443 l 0.375,-1.927131 h -1.722656 l -0.375,1.927131 h -1.171875 z m 6.621094,0.890197 -0.539063,2.768417 h 0.410157 c 0.550781,0 0.984375,-0.156518 1.300781,-0.459772 0.316406,-0.313037 0.480469,-0.723897 0.480469,-1.242364 0,-0.352166 -0.105469,-0.626073 -0.316407,-0.792374 -0.210937,-0.185865 -0.515625,-0.273907 -0.925781,-0.273907 z m -0.996094,-0.890197 h 1.230469 c 0.585937,0 1.019531,0.03913 1.3125,0.107606 0.292969,0.06848 0.539062,0.185866 0.738281,0.352166 0.1875,0.166301 0.339844,0.361949 0.445313,0.596726 0.09375,0.234777 0.140625,0.498902 0.140625,0.792374 0,0.41086 -0.08203,0.802156 -0.246094,1.164104 -0.175781,0.361949 -0.410156,0.665203 -0.714844,0.919545 -0.269531,0.215212 -0.574219,0.371731 -0.9375,0.459772 -0.351562,0.09782 -0.890625,0.146736 -1.628906,0.146736 h -1.230469 z m 7.623047,3.707526 h -1.816406 l -0.445313,0.831503 h -1.207031 l 2.566406,-4.539029 h 1.335938 l 0.808593,4.539029 h -1.113281 z m -1.371094,-0.821721 h 1.21875 l -0.269531,-1.741265 z m 3.219727,-2.885805 h 1.171875 l 0.773437,1.682571 1.347657,-1.682571 h 1.359375 l -2.25,2.651028 -0.363282,1.888001 h -1.171875 l 0.375,-1.888001 z m 0,0"
       style="fill:#231f20;fill-opacity:1;fill-rule:nonzero;stroke:none"
       aria-label="MOONDAY&#10;ATOMDAY&#10;FIREDAY&#10;SUNDAY&#10;WATERDAY&#10;WINDAY&#10;EARTHDAY"
       transform="matrix(3.4756939,0,0,4.1636848,47.281034,57.409496)"
       clip-path="url(#clipPath141-3)" />
    <path
       id="path142"
       d="m -0.010995,-2.9165159 h 2.4609375 v 0.3398424 h -1.03125 V 0.00144187 H 1.020255 V -2.5766735 h -1.03125 z m 2.8417969,0 h 0.5976562 l 0.7382813,1.99217999 0.75,-1.99217999 H 5.5026769 V 0.00144187 H 5.1159581 V -2.5532361 l -0.75,1.99218008 H 3.9675206 l -0.75,-1.99218008 V 0.00144187 H 2.8308019 Z m 0,0"
       style="fill:#231f20;fill-opacity:1;fill-rule:nonzero;stroke:none"
       aria-label="TM"
       transform="matrix(3.4756939,0,0,3.475707,13.002827,40.378603)"
       clip-path="url(#clipPath143-6)" />
    <path
       id="path144"
       d="m 285.809,311.18 v 43.437"
       style="fill:none;stroke:#231f20;stroke-width:0.6293;stroke-linecap:butt;stroke-linejoin:miter;stroke-miterlimit:2.6131;stroke-dasharray:none;stroke-opacity:1"
       transform="matrix(0,3.4756939,3.4756939,0,-1040.4964,-794.04774)"
       clip-path="url(#clipPath145-9)" />
    <path
       id="path146"
       d="m 295.492,311.18 v 43.437"
       style="fill:none;stroke:#231f20;stroke-width:0.6293;stroke-linecap:butt;stroke-linejoin:miter;stroke-miterlimit:2.6131;stroke-dasharray:none;stroke-opacity:1"
       transform="matrix(0,3.4756939,3.4756939,0,-1040.4964,-794.04774)"
       clip-path="url(#clipPath147-2)" />
  </g>
</svg>
